<?xml version="1.0" encoding="iso-8859-1"?>
<!-- Generator: Adobe Illustrator 19.0.0, SVG Export Plug-In . SVG Version: 6.00 Build 0)  -->
<svg xmlns="http://www.w3.org/2000/svg" xmlns:xlink="http://www.w3.org/1999/xlink" version="1.1" id="Capa_1" x="0px" y="0px" viewBox="0 0 512.002 512.002" style="enable-background:new 0 0 512.002 512.002;" xml:space="preserve" width="512px" height="512px">
<g>
	<g>
		<path d="M29.99,332.912v74.975h91.844v-74.975H29.99z M106.839,392.892H44.985v-44.985h61.854V392.892z" fill="#FFFFFF"/>
	</g>
</g>
<g>
	<g>
		<rect y="332.909" width="14.995" height="74.975" fill="#FFFFFF"/>
	</g>
</g>
<g>
	<g>
		<path d="M29.99,104.115v74.975h91.844v-74.975H29.99z M106.839,164.095H44.985V119.11h61.854V164.095z" fill="#FFFFFF"/>
	</g>
</g>
<g>
	<g>
		<path d="M403.068,257.814l-53.015,53.014l16.336,16.336c-39.725-0.158-72.151-31.766-73.664-71.164    c1.513-39.397,33.94-71.006,73.664-71.164l-16.336,16.338l53.014,53.015L512,145.256L403.151,36.406l-53.016,53.015l20.441,20.441    h-3.888c-41.555,0-80.788,17.207-108.986,47.494c-27.356-32.529-68.333-53.241-114.063-53.241h-8.684v74.975h8.685    c40.824,0,74.038,33.213,74.038,74.038c0,1.925,0.049,3.84,0.122,5.747h-0.122c0,1.112-0.025,2.239-0.075,3.352    c-1.772,39.637-34.26,70.685-73.962,70.685h-8.686v74.975h8.685c23.595,0,47.104-5.682,67.987-16.431    c17.549-9.034,33.331-21.666,46.086-36.815c27.221,29.203,66,47.499,108.977,47.499h3.888l-20.441,20.441l53.015,53.015    l108.85-108.849L403.068,257.814z M366.689,124.857h40.089L371.34,89.421l31.809-31.809l87.645,87.644l-87.727,87.727    l-31.808-31.809l31.331-31.331h-35.901c-33.926,0-63.476,19.076-78.5,47.061c-4.302-17.164-11.586-33.158-21.273-47.393    C292.397,141.071,328.452,124.857,366.689,124.857z M204.763,378.123c-17.168,8.838-35.578,13.746-54.814,14.625v-45.063    c20.705-1.455,40.135-10.05,55.275-24.569c7.995-7.667,14.373-16.605,18.974-26.357c5.175,16.867,13.27,32.467,23.691,46.214    C236.132,357.503,221.325,369.598,204.763,378.123z M403.151,454.39l-31.809-31.809l35.436-35.436h-40.089    c-73.897,0-134.017-60.12-134.017-134.018c0-46.971-36.563-85.563-82.722-88.811v-45.059    c70.978,3.307,127.707,62.089,127.707,133.871c0,0.962,0.021,1.919,0.051,2.874c-0.031,0.955-0.051,1.911-0.051,2.874h0.191    c2.973,46.424,41.68,83.285,88.842,83.285h35.901l-31.331-31.331l31.808-31.809l87.728,87.727L403.151,454.39z" fill="#FFFFFF"/>
	</g>
</g>
<g>
	<g>
		<rect y="104.116" width="14.995" height="74.975" fill="#FFFFFF"/>
	</g>
</g>
<g>
	<g>
		<rect x="426.387" y="138.854" width="14.995" height="14.995" fill="#FFFFFF"/>
	</g>
</g>
<g>
	<g>
		<rect x="426.387" y="356.281" width="14.995" height="14.995" fill="#FFFFFF"/>
	</g>
</g>
<g>
</g>
<g>
</g>
<g>
</g>
<g>
</g>
<g>
</g>
<g>
</g>
<g>
</g>
<g>
</g>
<g>
</g>
<g>
</g>
<g>
</g>
<g>
</g>
<g>
</g>
<g>
</g>
<g>
</g>
</svg>
