<?xml version="1.0" encoding="iso-8859-1"?>
<!-- Generator: Adobe Illustrator 19.0.0, SVG Export Plug-In . SVG Version: 6.00 Build 0)  -->
<svg version="1.1" id="Capa_1" xmlns="http://www.w3.org/2000/svg" xmlns:xlink="http://www.w3.org/1999/xlink" x="0px" y="0px"
	 viewBox="0 0 508 508" style="enable-background:new 0 0 508 508;" xml:space="preserve">
<g>
	<g>
		<path d="M254,86.05c-140.1,0-254,114-254,254c0,26.1,3.9,51.7,11.7,76.2l1.8,5.7h481l1.8-5.7c7.8-24.5,11.7-50.1,11.7-76.2
			C508,200.05,394.1,86.05,254,86.05z M491.3,348.35c-0.7,19.6-3.6,38.8-8.9,57.3H25.6v0c-5.4-18.5-8.2-37.8-8.9-57.3h32.5v-16.4
			H16.6c1.3-37.3,11.1-72.4,27.7-103.4l28.2,16.3l8.2-14.2l-28.2-16.3c19.2-30.6,45.1-56.5,75.7-75.7l16.3,28.2l14.2-8.2l-16.3-28.2
			c31-16.6,66.1-26.4,103.4-27.7v32.6h16.4v-32.6c37.3,1.3,72.4,11.1,103.4,27.7l-16.3,28.2l14.2,8.2l16.3-28.2
			c30.6,19.2,56.5,45.1,75.7,75.7l-28.2,16.3l8.2,14.2l28.2-16.3c16.6,31,26.4,66.1,27.7,103.4h-32.6v16.4H491.3z"/>
	</g>
</g>
<g>
	<g>
		<path d="M254,273.95c-21,0-39.4,11.3-49.6,28.1l-94.2-54.4l-8.2,14.2l95.9,55.4c-1.2,4.7-2,9.6-2,14.7c0,32,26,58,58,58
			s58-26,58-58S286,273.95,254,273.95z M254,373.55c-22.9,0-41.6-18.7-41.6-41.6c0-22.9,18.7-41.6,41.6-41.6s41.6,18.7,41.6,41.6
			C295.6,354.85,276.9,373.55,254,373.55z"/>
	</g>
</g>
<g>
	<g>
		<rect x="245.8" y="323.75" width="16.4" height="16.4"/>
	</g>
</g>
<g>
	<g>
		<rect x="245.8" y="184.45" width="16.4" height="16.4"/>
	</g>
</g>
<g>
	<g>
		<rect x="213" y="184.45" width="16.4" height="16.4"/>
	</g>
</g>
<g>
	<g>
		<rect x="278.6" y="184.45" width="16.4" height="16.4"/>
	</g>
</g>
<g>
</g>
<g>
</g>
<g>
</g>
<g>
</g>
<g>
</g>
<g>
</g>
<g>
</g>
<g>
</g>
<g>
</g>
<g>
</g>
<g>
</g>
<g>
</g>
<g>
</g>
<g>
</g>
<g>
</g>
</svg>
